<?xml version='1.0' encoding='utf-8'?>
<svg xmlns="http://www.w3.org/2000/svg" viewBox="0 0 206.14 165.4"> <defs> <filter id="a"> <feGaussianBlur stdDeviation="10.6463"/> </filter> <filter id="b"> <feGaussianBlur stdDeviation="9.6047"/> </filter> </defs> <g fill-rule="evenodd"> <path transform="matrix(.27668 0 0 .27668 -1038.7 -637.77)" d="m4000.8 2526-171.46 73.581c-4.2811 1.8709-4.8519 5.7395 0 8.1811l171.52 73.918c6.2329 2.7778 11.202 1.0711 10.993-6.0986v-35.672c0.044-6.8838 1.6366-8.427 8.5706-8.5434h158.03c7.3456 0.2251 10.818-2.9336 10.662-10.455v-33.756c0.1971-7.2431-3.3162-11.062-10.54-10.844h-158.15c-6.9748-0.1227-8.4862-1.5901-8.5706-8.4393v-35.835c0.2376-7.6299-4.4742-8.8349-11.054-6.0364zm67.416-143.3v123c-0.3015 6.7359 3.5148 10.618 10.471 10.423h33.392c7.0318 0.2083 10.443-2.7715 10.258-10.26v-72.2c0.087-6.4333 2.335-8.5452 8.7009-8.5371h233.13c6.583 0.1005 8.4365 1.8728 8.6183 8.4963v340.13c-0.046 5.2643-2.8643 8.2048-8.4552 8.4546h-233.55c-5.963-0.041-8.446-2.2738-8.4449-8.4872v-73.065c0.2365-7.6501-3.0332-10.857-10.421-10.598h-33.066c-7.2141-0.014-10.881 2.9069-10.634 10.72v124.51c-0.2065 6.9196 3.6643 10.618 10.511 10.485h337.71c6.507 0.093 10.568-3.4435 10.47-10.363v-442.82c0.071-6.5378-3.6908-10.426-10.429-10.441h-337.84c-6.3307-0.026-10.541 3.8212-10.43 10.563z" fill-rule="evenodd" filter="url(#a)" opacity=".99" stroke="#000" stroke-width="43.014"/> <g transform="matrix(.23002 0 0 .23002 -843.56 -513.72)" stroke="#008000"> <path d="m3945.8 2480.6-206.24 88.509c-5.1496 2.2505-5.8362 6.9039 0 9.8409l206.31 88.915c7.4975 3.3413 13.474 1.2883 13.223-7.336v-42.909c0.053-8.2804 1.9686-10.137 10.309-10.277h190.09c8.836 0.2708 13.013-3.5288 12.825-12.576v-40.605c0.237-8.7126-3.989-13.306-12.678-13.044h-190.24c-8.3899-0.1472-10.208-1.9127-10.309-10.151v-43.106c0.2858-9.1779-5.382-10.627-13.296-7.2611zm81.094-172.37v147.95c-0.3628 8.1025 4.2279 12.772 12.595 12.538h40.167c8.4584 0.2506 12.562-3.3338 12.339-12.342v-86.849c0.1047-7.7385 2.8087-10.279 10.466-10.269h280.43c7.9186 0.121 10.148 2.2527 10.367 10.22v409.14c-0.055 6.3324-3.4454 9.8695-10.171 10.17h-280.94c-7.1728-0.049-10.16-2.7351-10.158-10.209v-87.888c0.2845-9.2022-3.6486-13.059-12.535-12.748h-39.775c-8.6777-0.017-13.088 3.4966-12.791 12.895v149.77c-0.2484 8.3235 4.4077 12.773 12.644 12.613h406.23c7.8272 0.1112 12.712-4.1421 12.594-12.466v-532.67c0.085-7.8642-4.4397-12.541-12.545-12.559h-406.38c-7.6151-0.031-12.68 4.5965-12.546 12.706z" fill="#008000" stroke-width="51.741"/> <path d="m3945.8 2480.6-206.24 88.509c-5.1496 2.2505-5.8362 6.9039 0 9.8409l206.31 88.915c7.4975 3.3413 13.474 1.2883 13.223-7.336v-42.909c0.053-8.2804 1.9686-10.137 10.309-10.277h190.09c8.836 0.2708 13.013-3.5288 12.825-12.576v-40.605c0.237-8.7126-3.989-13.306-12.678-13.044h-190.24c-8.3899-0.1472-10.208-1.9127-10.309-10.151v-43.106c0.2858-9.1779-5.382-10.627-13.296-7.2611zm81.094-172.37v147.95c-0.3628 8.1025 4.2279 12.772 12.595 12.538h40.167c8.4584 0.2506 12.562-3.3338 12.339-12.342v-86.849c0.1047-7.7385 2.8087-10.279 10.466-10.269h280.43c7.9186 0.121 10.148 2.2527 10.367 10.22v409.14c-0.055 6.3324-3.4454 9.8695-10.171 10.17h-280.94c-7.1728-0.049-10.16-2.7351-10.158-10.209v-87.888c0.2845-9.2022-3.6486-13.059-12.535-12.748h-39.775c-8.6777-0.017-13.088 3.4966-12.791 12.895v149.77c-0.2484 8.3235 4.4077 12.773 12.644 12.613h406.23c7.8272 0.1112 12.712-4.1421 12.594-12.466v-532.67c0.085-7.8642-4.4397-12.541-12.545-12.559h-406.38c-7.6151-0.031-12.68 4.5965-12.546 12.706z" fill="#fff" filter="url(#b)" stroke-width="7.3915"/> </g> </g> </svg>